<svg xmlns="http://www.w3.org/2000/svg" viewBox="0 0 64 64" fill="none">
  <path d="M32 2L38 24H26L32 2Z" fill="#D4A853"/>
  <path d="M32 62L26 40H38L32 62Z" fill="#D4A853"/>
  <path d="M2 32L24 26V38L2 32Z" fill="#D4A853"/>
  <path d="M62 32L40 38V26L62 32Z" fill="#D4A853"/>
  <path d="M12 12L28 24L20 28L12 12Z" fill="#D4A853" opacity="0.7"/>
  <path d="M52 12L44 28L36 24L52 12Z" fill="#D4A853" opacity="0.7"/>
  <path d="M12 52L20 36L28 40L12 52Z" fill="#D4A853" opacity="0.7"/>
  <path d="M52 52L36 40L44 36L52 52Z" fill="#D4A853" opacity="0.7"/>
  <circle cx="32" cy="32" r="6" fill="#D4A853"/>
</svg>
